<svg xmlns="http://www.w3.org/2000/svg" id="a" viewBox="0 0 260.19 49.98"><defs><style>.b{fill:#424242;}</style></defs><path class="b" d="m10.41,35.4c1.34,4.26,4.89,6.23,9.62,6.23s8.12-2.21,8.12-6.07c0-2.92-1.74-4.49-5.91-5.44l-8.67-1.97c-6.94-1.58-12.3-5.28-12.3-13.24C1.26,6.15,8.51,0,18.68,0c11.04,0,17.42,5.83,19,14.03h-10.01c-1.1-3.23-3.86-5.76-8.91-5.76-4.57,0-7.65,2.21-7.65,5.68,0,2.76,1.81,4.42,5.44,5.28l8.83,2.05c7.88,1.81,12.69,6.31,12.69,13.64,0,9.38-7.73,15.06-17.98,15.06-10.8,0-18.45-5.36-20.1-14.59h10.41Z"></path><polygon class="b" points="96.66 .79 96.66 49.2 86.57 49.2 86.57 28.86 64.65 28.86 64.65 49.2 54.56 49.2 54.56 .79 64.65 .79 64.65 20.03 86.57 20.03 86.57 .79 96.66 .79"></polygon><polygon class="b" points="159.03 49.2 140.5 .79 130.49 .79 111.96 49.2 122.05 49.2 135.38 12.93 148.78 49.2 159.03 49.2"></polygon><path class="b" d="m193.41,9.38h-9.07v14.43h9.07c5.2,0,7.73-2.99,7.73-7.17s-2.52-7.25-7.73-7.25m-9.07,23.02v16.79h-10.01V.79h19.71c10.25,0,17.03,5.52,17.03,15.85s-6.78,15.77-17.03,15.77h-9.7Z"></path><polygon class="b" points="260.19 .79 260.19 9.62 237.25 9.62 237.25 20.18 258.06 20.18 258.06 28.78 237.25 28.78 237.25 40.29 260.19 40.29 260.19 49.2 227.31 49.2 227.31 .79 260.19 .79"></polygon></svg>